Coordinates
version=1
nRows=24
nColumns=38
inDegrees=no

Units are S.I. units (second, meters, Newtons, ...)
If the header above contains a line with 'inDegrees', this indicates whether rotational values are in degrees (yes) or radians (no).

endheader
time	pelvis_tilt	pelvis_list	pelvis_rotation	pelvis_tx	pelvis_ty	pelvis_tz	hip_flexion_r	hip_adduction_r	hip_rotation_r	knee_angle_r	ankle_angle_r	subtalar_angle_r	mtp_angle_r	hip_flexion_l	hip_adduction_l	hip_rotation_l	knee_angle_l	ankle_angle_l	subtalar_angle_l	mtp_angle_l	lumbar_extension	lumbar_bending	lumbar_rotation	arm_flex_r	arm_add_r	arm_rot_r	elbow_flex_r	pro_sup_r	wrist_flex_r	wrist_dev_r	arm_flex_l	arm_add_l	arm_rot_l	elbow_flex_l	pro_sup_l	wrist_flex_l	wrist_dev_l
1.925	-0.0141493	0.0932235	0.0497037	0.905021	0.965052	-0.632605	0.54932	-0.108213	-0.131361	-2.2855	0.267147	0.0999993	5.49557e-06	0.432749	0.0887259	-0.263796	-0.945748	0.734666	0.0889053	2.35262e-07	-0.381475	-0.155553	-0.148103	-0.426762	-0.30588	-0.04903	1.75672	2.08992	-0.0135184	-0.0240283	0.0251652	-0.541291	0.215354	1.99012	1.75627	0.025745	-0.012019
1.93333	-0.0191606	0.0813199	0.0574826	0.902703	0.964144	-0.633593	0.620801	-0.0986902	-0.126283	-2.27319	0.269599	0.0999993	5.49557e-06	0.395515	0.0718525	-0.26158	-0.948717	0.772166	0.0889053	2.35262e-07	-0.37946	-0.135131	-0.175433	-0.450028	-0.309318	-0.0479335	1.74591	2.07776	-0.0135184	-0.0240283	0.0513284	-0.53312	0.208702	2.00275	1.76123	0.025745	-0.012019
1.94167	-0.0253859	0.0659693	0.0660149	0.901198	0.964098	-0.634806	0.688029	-0.0879738	-0.125439	-2.24704	0.273122	0.0999993	5.49557e-06	0.354956	0.0513901	-0.258884	-0.942142	0.800946	0.0889053	2.35262e-07	-0.372985	-0.110079	-0.201469	-0.478687	-0.314997	-0.0465221	1.74738	2.06494	-0.0135184	-0.0240283	0.0701021	-0.521887	0.198554	2.02228	1.76521	0.025745	-0.012019
1.95	-0.0323339	0.0478327	0.0751329	0.90056	0.964956	-0.636201	0.749444	-0.0770007	-0.12933	-2.20786	0.278166	0.0999993	5.49557e-06	0.310931	0.028071	-0.256216	-0.926328	0.818818	0.0889053	2.35262e-07	-0.362478	-0.0814149	-0.226112	-0.51248	-0.321875	-0.0461479	1.75908	2.05465	-0.0135184	-0.0240283	0.0820899	-0.507978	0.186256	2.0472	1.76831	0.025745	-0.012019
1.95833	-0.0394105	0.0277008	0.0844435	0.900805	0.966739	-0.637725	0.803685	-0.0664656	-0.137917	-2.15667	0.2849	0.0999993	5.49557e-06	0.263108	0.00281156	-0.254426	-0.901402	0.823599	0.0889053	2.35262e-07	-0.348661	-0.0503555	-0.24913	-0.550821	-0.328867	-0.0480482	1.77841	2.04902	-0.0135184	-0.0240283	0.0882261	-0.491871	0.173335	2.07578	1.77057	0.025745	-0.012019
1.96667	-0.0460417	0.00643228	0.0933436	0.90191	0.96944	-0.639323	0.849728	-0.05674	-0.150636	-2.09459	0.29322	0.0999993	5.49557e-06	0.211168	-0.0233491	-0.254668	-0.867439	0.813284	0.0889053	2.35262e-07	-0.332419	-0.0182076	-0.270151	-0.592872	-0.334994	-0.053146	1.80267	2.0487	-0.0135184	-0.0240283	0.0895765	-0.474082	0.161258	2.10632	1.77189	0.025745	-0.012019
1.975	-0.0518055	-0.0150951	0.101078	0.903805	0.973004	-0.640935	0.886999	-0.0478551	-0.166472	-2.02266	0.30279	0.0999993	5.49557e-06	0.155042	-0.0492843	-0.258218	-0.82466	0.786277	0.0889053	2.35262e-07	-0.314647	0.0137227	-0.288721	-0.637617	-0.33949	-0.0619312	1.82932	2.0529	-0.0135184	-0.0240283	0.0871571	-0.455134	0.151216	2.13733	1.77213	0.025745	-0.012019
1.98333	-0.0565334	-0.0360147	0.106839	0.906394	0.977317	-0.642493	0.915429	-0.0395603	-0.184109	-1.94181	0.313114	0.0999993	5.49557e-06	0.0951257	-0.0738081	-0.266179	-0.773661	0.741687	0.0889053	2.35262e-07	-0.29612	0.0442047	-0.304395	-0.683926	-0.34186	-0.0744414	1.85628	2.05981	-0.0135184	-0.0240283	0.0818058	-0.435539	0.143981	2.16766	1.77116	0.025745	-0.012019
1.99167	-0.0603491	-0.0554843	0.109895	0.90956	0.982208	-0.643926	0.935425	-0.0314608	-0.20212	-1.85279	0.323667	0.0999993	5.49557e-06	0.0323968	-0.0957175	-0.279172	-0.715635	0.679668	0.0889053	2.35262e-07	-0.277393	0.072133	-0.316849	-0.730614	-0.341884	-0.09033	1.88202	2.06729	-0.0135184	-0.0240283	0.0741244	-0.415794	0.139851	2.19659	1.769	0.025745	-0.012019
2	-0.0636449	-0.0727005	0.109714	0.913159	0.987469	-0.64516	0.947774	-0.0231946	-0.219189	-1.75616	0.334039	0.0999993	5.49557e-06	-0.0315908	-0.113846	-0.29706	-0.652507	0.601727	0.0889053	2.35262e-07	-0.258765	0.0965537	-0.325971	-0.776506	-0.339591	-0.108988	1.90559	2.07347	-0.0135184	-0.0240283	0.0644855	-0.396368	0.138682	2.22373	1.76584	0.025745	-0.012019
2.00833	-0.0669802	-0.0869227	0.106063	0.917021	0.992867	-0.646129	0.953499	-0.0145894	-0.234319	-1.6524	0.344025	0.0999993	5.49557e-06	-0.0948432	-0.127139	-0.318784	-0.586936	0.510942	0.0889053	2.35262e-07	-0.240292	0.116678	-0.331901	-0.820508	-0.335201	-0.12968	1.92653	2.07722	-0.0135184	-0.0240283	0.053087	-0.377695	0.140001	2.24893	1.76207	0.025745	-0.012019
2.01667	-0.0709631	-0.0974887	0.0990469	0.920969	0.998161	-0.646791	0.953704	-0.00576145	-0.247022	-1.54201	0.353692	0.0999993	5.49557e-06	-0.155158	-0.134766	-0.342391	-0.522194	0.412084	0.0889053	2.35262e-07	-0.221857	0.131923	-0.335015	-0.861659	-0.329058	-0.151652	1.94477	2.07832	-0.0135184	-0.0240283	0.0400327	-0.36016	0.143162	2.2722	1.7582	0.025745	-0.012019
2.025	-0.0761175	-0.103901	0.0891058	0.924838	1.00311	-0.647144	0.949437	0.00289111	-0.25743	-1.42572	0.363347	0.0999993	5.49557e-06	-0.210404	-0.13625	-0.365273	-0.461941	0.311436	0.0889053	2.35262e-07	-0.203273	0.141951	-0.335844	-0.899162	-0.321564	-0.174199	1.96049	2.07734	-0.0135184	-0.0240283	0.0254138	-0.34408	0.147491	2.29354	1.75474	0.025745	-0.012019
2.03333	-0.0827611	-0.105917	0.0769485	0.928495	1.00752	-0.647232	0.941607	0.0108016	-0.266285	-1.30461	0.37339	0.0999993	5.49557e-06	-0.258769	-0.131572	-0.384595	-0.40994	0.216264	0.0889053	2.35262e-07	-0.184411	0.146723	-0.334974	-0.932381	-0.313127	-0.196685	1.97392	2.07536	-0.0135184	-0.0240283	0.0093749	-0.329698	0.152408	2.3129	1.7521	0.025745	-0.012019
2.04167	-0.0909177	-0.103622	0.0634521	0.931833	1.01125	-0.647136	0.930934	0.0173847	-0.274825	-1.18033	0.384168	0.0999993	5.49557e-06	-0.298936	-0.121231	-0.397763	-0.369745	0.133836	0.0889053	2.35262e-07	-0.165317	0.146546	-0.33294	-0.960806	-0.304139	-0.21853	1.9853	2.07356	-0.0135184	-0.0240283	-0.00784693	-0.317167	0.157488	2.33009	1.75055	0.025745	-0.012019
2.05	-0.100278	-0.0974559	0.0495303	0.934789	1.01423	-0.646956	0.91796	0.0222126	-0.284516	-1.05512	0.395781	0.0999993	5.49557e-06	-0.330164	-0.106232	-0.402953	-0.344433	0.0701703	0.0889053	2.35262e-07	-0.1463	0.14208	-0.330134	-0.984006	-0.294968	-0.239184	1.99477	2.07285	-0.0135184	-0.0240283	-0.0259143	-0.306542	0.162469	2.3448	1.75012	0.025745	-0.012019
2.05833	-0.110245	-0.0881849	0.0360083	0.937333	1.01646	-0.64679	0.903061	0.0251565	-0.296706	-0.931801	0.407924	0.0999993	5.49557e-06	-0.352292	-0.0880033	-0.399495	-0.336373	0.028784	0.0889053	2.35262e-07	-0.127977	0.134309	-0.326753	-1.00159	-0.285978	-0.258111	2.00234	2.07365	-0.0135184	-0.0240283	-0.0444091	-0.297775	0.167221	2.35663	1.75067	0.025745	-0.012019
2.06667	-0.120001	-0.0768674	0.0235192	0.939459	1.01801	-0.646715	0.886479	0.026429	-0.312312	-0.813617	0.419879	0.0999993	5.49557e-06	-0.365671	-0.0682281	-0.38795	-0.34705	0.00992614	0.0889053	2.35262e-07	-0.111244	0.124453	-0.322774	-1.01319	-0.277545	-0.2748	2.00795	2.07578	-0.0135184	-0.0240283	-0.0628732	-0.29071	0.171687	2.36514	1.75188	0.025745	-0.012019
2.075	-0.128603	-0.0647363	0.0124476	0.941175	1.01893	-0.646781	0.868332	0.0265464	-0.331599	-0.703967	0.430632	0.0999993	5.49557e-06	-0.371061	-0.0486568	-0.369881	-0.376966	0.0105802	0.0889053	2.35262e-07	-0.0971887	0.11387	-0.317992	-1.0185	-0.270077	-0.288811	2.01153	2.07857	-0.0135184	-0.0240283	-0.0808594	-0.285096	0.175831	2.36991	1.75336	0.025745	-0.012019
2.08333	-0.135116	-0.0530806	0.00292821	0.942493	1.01936	-0.646992	0.848625	0.0262613	-0.354028	-0.606041	0.439053	0.0999993	5.49557e-06	-0.369511	-0.0309526	-0.347574	-0.425652	0.0252541	0.0889053	2.35262e-07	-0.0869461	0.10395	-0.312077	-1.01733	-0.264007	-0.299831	2.01304	2.08109	-0.0135184	-0.0240283	-0.0979837	-0.28061	0.179607	2.37067	1.75461	0.025745	-0.012019
2.09167	-0.138736	-0.0431184	-0.00510928	0.943421	1.01937	-0.64732	0.827274	0.0264203	-0.378351	-0.522466	0.444124	0.0999993	5.49557e-06	-0.362234	-0.0165358	-0.323496	-0.491739	0.0473047	0.0889053	2.35262e-07	-0.0815349	0.0959788	-0.304648	-1.00965	-0.259777	-0.307734	2.01258	2.08247	-0.0135184	-0.0240283	-0.11397	-0.276898	0.182937	2.3673	1.75517	0.025745	-0.012019
2.1	-0.138914	-0.0358772	-0.0118814	0.943964	1.01907	-0.647714	0.804148	0.0278439	-0.402758	-0.455038	0.445063	0.0999993	5.49557e-06	-0.350471	-0.00650396	-0.299966	-0.57313	0.0703794	0.0889053	2.35262e-07	-0.0816908	0.0910161	-0.295342	-0.995688	-0.257801	-0.312603	2.0104	2.08213	-0.0135184	-0.0240283	-0.128681	-0.273621	0.185724	2.35985	1.75452	0.025745	-0.012019
2.10833	-0.135435	-0.0320907	-0.0176966	0.944123	1.0185	-0.648112	0.779167	0.0312325	-0.42511	-0.404593	0.441384	0.0999993	5.49557e-06	-0.335368	-0.00160448	-0.278998	-0.667225	0.0895826	0.0889053	2.35262e-07	-0.0877315	0.0897812	-0.283852	-0.975892	-0.258428	-0.314707	2.00685	2.07999	-0.0135184	-0.0240283	-0.142122	-0.270506	0.187872	2.34856	1.75221	0.025745	-0.012019
2.11667	-0.128451	-0.0321296	-0.0229139	0.943898	1.01765	-0.648455	0.752432	0.0371042	-0.443178	-0.3711	0.432986	0.0999993	5.49557e-06	-0.317862	-0.00222721	-0.26219	-0.771154	0.102124	0.0889053	2.35262e-07	-0.099489	0.092572	-0.269943	-0.950917	-0.261913	-0.314421	2.00237	2.07647	-0.0135184	-0.0240283	-0.154423	-0.267379	0.1893	2.33373	1.74788	0.025745	-0.012019
